<svg width="240" height="161" viewBox="0 0 240 161" fill="none" xmlns="http://www.w3.org/2000/svg">
<rect width="240" height="161" rx="12" fill="#FFF22D"/>
<path d="M79.9217 109.986L69.375 117.003V131.047L90.4684 117.003L79.9217 109.986Z" fill="#2360A5"/>
<path d="M160.078 51.0187L170.625 44.0015V29.9535L149.532 44.0015L160.078 51.0187Z" fill="#2360A5"/>
<path d="M120 131.047L170.625 97.3458L149.532 83.3024L124.217 100.157L134.764 107.179L121.056 116.306L91.5249 96.6486L140.041 64.3559L129.495 57.3342L69.375 97.3458L120 131.047Z" fill="#2360A5"/>
<path d="M120.005 29.9671L69.375 63.6587L90.4684 77.7022L115.783 60.8473L105.236 53.8301L118.948 44.7032L148.48 64.3559L99.9631 96.6486L110.51 103.67L170.63 63.6587L120.005 29.9671Z" fill="#2360A5"/>
</svg>
