<svg width="241" height="161" viewBox="0 0 241 161" fill="none" xmlns="http://www.w3.org/2000/svg">
<rect x="0.666992" width="240" height="161" rx="12" fill="#3D80C0"/>
<path d="M60.1096 69.2481C60.1637 69.1952 60.2124 69.1413 60.2643 69.0862L60.5205 68.7753C61.0892 68.0434 61.4427 67.1345 61.4427 66.1359C61.4427 64.9879 60.986 63.8868 60.1729 63.075C59.3598 62.2632 58.2571 61.8071 57.1072 61.8071C55.9785 61.8072 54.8948 62.249 54.0886 63.0378L31.4984 87.5349C30.9597 88.269 30.6685 89.1551 30.667 90.0653C30.667 91.2133 31.1238 92.3144 31.9368 93.1262C32.7499 93.938 33.8527 94.3941 35.0025 94.3941H56.5666C57.7165 94.3941 58.8192 93.938 59.6323 93.1262C60.4454 92.3144 60.9022 91.2133 60.9022 90.0653C60.9022 88.9172 60.4454 87.8161 59.6323 87.0043C58.8192 86.1925 57.7165 85.7365 56.5666 85.7365H45.3818C45.3818 85.7365 44.5515 85.568 45.2986 84.8232L60.1096 69.2481ZM51.1694 61.7791H35.3161V61.7898C34.1849 61.8211 33.1106 62.2919 32.3218 63.1019C31.5329 63.912 31.0918 64.9974 31.0922 66.1272C31.0926 67.2571 31.5346 68.3422 32.324 69.1516C33.1135 69.9611 34.1881 70.431 35.3193 70.4615C35.3507 70.4615 35.3798 70.4518 35.4123 70.4507H43.3817L51.1694 61.7791ZM75.8138 62.5207C75.8138 62.5207 67.1676 62.5941 65.2474 67.169C65.2474 67.169 64.6549 70.0459 64.8766 71.9642C64.8766 71.9642 69.091 68.8358 74.631 68.7181C81.5775 68.5702 80.9126 74.474 80.9126 74.474C80.9126 74.474 61.4049 72.2599 61.4049 86.0571C61.4049 86.0571 61.4038 95.059 72.0448 95.059C72.0448 95.059 77.9567 94.5409 80.7645 89.7446V94.2462C80.7645 94.2462 89.5588 95.1324 89.5588 87.6072V71.595C89.5588 71.595 89.1155 62.5207 75.8138 62.5207ZM74.5791 88.6576C70.0381 88.8163 69.9397 84.0729 69.9397 84.0729C69.9397 84.0729 69.3191 80.6261 75.4213 80.028C75.4213 80.028 80.9656 79.3188 81.011 80.5073C81.011 80.5073 81.7613 88.4061 74.5791 88.6576ZM111.667 62.8251C111.667 62.8251 103.45 62.9849 101.687 68.2625V62.8499C101.687 62.8499 92.2509 61.9043 92.2509 69.4921C92.2509 77.0799 92.3396 108.829 92.3396 108.829C92.3396 108.829 101.679 109.72 101.679 101.945V90.4895C101.679 90.4895 104.766 95.4207 110.708 95.4207C117.519 95.4207 124.6 90.7777 124.6 77.8982C124.601 62.6373 111.667 62.8251 111.667 62.8251ZM107.271 87.8642C104.575 87.8642 101.286 84.3795 101.286 78.2825C101.286 72.1855 104.497 69.4921 108.143 69.4921C108.143 69.4921 115.241 69.8095 115.241 78.0839C115.241 86.3582 110.343 87.8642 107.271 87.8642ZM145.508 62.8251C145.508 62.8251 137.291 62.9849 135.526 68.2625V62.8499C135.526 62.8499 126.092 61.9043 126.092 69.4921C126.092 77.0799 126.178 108.829 126.178 108.829C126.178 108.829 135.52 109.72 135.52 101.945V90.4895C135.52 90.4895 138.605 95.4207 144.548 95.4207C151.36 95.4207 158.441 90.7777 158.441 77.8982C158.441 62.6373 145.508 62.8251 145.508 62.8251ZM141.113 87.8642C138.415 87.8642 135.126 84.3795 135.126 78.2825C135.126 72.1855 138.336 69.4921 141.984 69.4921C141.984 69.4921 149.082 69.8095 149.082 78.0839C149.082 86.3582 144.183 87.8642 141.113 87.8642ZM182.462 64.942C180.274 63.8081 177.844 63.215 175.378 63.2126C166.685 63.2126 159.639 70.3838 159.639 79.2303C159.639 88.0768 166.685 95.2469 175.378 95.2469C175.837 95.2469 176.291 95.2231 176.741 95.1843C177.893 95.0342 180.238 94.6046 182.56 93.4678C183.917 92.7524 185.163 91.8433 186.257 90.7691C187.413 89.5074 188.208 87.9592 188.56 86.2859H187.226C187.226 86.2859 184.758 88.8087 177.18 88.8087C169.601 88.8087 168.542 81.2414 168.542 81.2414H189.157C189.36 78.8881 189.743 69.0225 182.462 64.942ZM180.724 76.1397H168.504C168.504 76.1397 168.818 69.0992 174.928 69.0992C181.036 69.0992 180.724 76.1397 180.724 76.1397ZM200.844 79.8456C200.844 73.7486 203.665 71.1232 207.313 71.1232C207.313 71.1232 208.96 71.2085 210.667 72.207V62.8326C209.531 62.8866 202.476 63.4134 200.857 68.2625V62.8488C200.857 62.8488 191.419 61.9043 191.419 69.4932C191.419 77.0799 191.453 94.5301 191.453 94.5301C191.453 94.5301 200.85 95.1767 200.85 87.4032C200.85 80.6207 200.844 79.9417 200.844 79.8456Z" fill="white"/>
</svg>
