<svg width="241" height="161" viewBox="0 0 241 161" fill="none" xmlns="http://www.w3.org/2000/svg">
<rect x="0.333008" width="240" height="161" rx="12" fill="#9B55B7"/>
<path d="M62.208 80.5C62.208 48.4872 88.2705 22.4651 120.333 22.4651C152.396 22.4651 178.458 48.4872 178.458 80.5C178.458 112.513 152.396 138.535 120.333 138.535C88.2705 138.535 62.208 112.513 62.208 80.5ZM120.333 134.416C150.146 134.416 174.333 110.266 174.333 80.5C174.333 50.7337 150.146 26.5837 120.333 26.5837C90.5205 26.5837 66.333 50.7337 66.333 80.5C66.333 110.266 90.5205 134.416 120.333 134.416Z" fill="white"/>
<path d="M110.958 133.667C85.6455 129.174 66.333 107.084 66.333 80.5C66.333 50.7337 90.5205 26.5837 120.333 26.5837C124.458 26.5837 128.396 27.1453 132.333 27.8942L133.083 23.9628C128.958 23.0267 124.646 22.4651 120.333 22.4651C88.2705 22.4651 62.208 48.4872 62.208 80.5C62.208 109.143 82.833 132.919 110.208 137.599L110.958 133.667Z" fill="white"/>
<path d="M155.939 56.8924C146.751 42.8517 127.814 38.7331 113.564 48.0935C99.5013 57.2668 95.3763 76.1749 104.751 90.4028L113.751 84.7866C107.751 75.6133 110.376 63.2575 119.564 57.2668C128.751 51.2761 141.126 53.897 147.126 63.0703L155.939 56.8924Z" fill="black"/>
<path d="M136.083 69.4547C145.271 83.6826 141.333 102.591 127.083 111.764C112.833 120.937 93.8955 117.006 84.708 102.778L93.5205 96.7872C99.5205 105.96 111.896 108.581 121.083 102.591C130.271 96.6 132.896 84.2442 126.896 75.0709L136.083 69.4547Z" fill="white"/>
<path d="M127.083 111.764C112.833 120.937 93.8955 117.006 84.708 102.778L93.5205 96.7872C99.5205 105.96 111.896 108.581 121.083 102.591C130.271 96.6 132.896 84.2442 126.896 75.0709L136.083 69.2675" fill="white"/>
</svg>
