<svg width="241" height="161" viewBox="0 0 241 161" fill="none" xmlns="http://www.w3.org/2000/svg">
<rect x="0.666992" width="240" height="161" rx="12" fill="#EE293D"/>
<path d="M33.2911 68.0237C31.6654 68.0237 31.5051 67.4863 31.5051 63.5695V62.9011C31.5051 58.9709 31.6654 58.4388 33.2911 58.4388H70.4639C72.0951 58.4388 72.2554 58.9709 72.2554 62.8958V63.5642C72.2554 67.4863 72.0923 68.0211 70.4639 68.0211H33.2911V68.0237ZM33.2911 50.7763C31.6654 50.7763 31.5051 50.2416 31.5051 46.3194V45.651C31.5051 41.7154 31.6654 41.186 33.2911 41.186H70.4639C72.0951 41.186 72.2554 41.7208 72.2554 45.651V46.3194C72.2554 50.2416 72.0923 50.7763 70.4639 50.7763H33.2911ZM38.8598 101.997C38.8598 95.5058 42.187 91.9365 47.1932 91.9365C49.0832 91.9365 50.5964 92.4605 52.4892 93.3562C53.1754 93.6877 53.7436 93.554 54.6436 91.5248L55.2989 90.1452C55.9457 88.4822 55.9936 87.7951 55.2089 87.4261C52.8886 86.1348 49.297 85.3193 46.1948 85.3193C37.3551 85.3193 30.667 91.9766 30.667 101.997C30.667 112.015 37.3551 118.673 46.192 118.673C49.297 118.673 52.9701 117.86 55.2989 116.56C56.0751 116.2 56.0245 115.504 55.3832 113.841L54.7364 112.384C53.8364 110.352 53.2654 110.237 52.5736 110.553C50.6807 111.454 49.0861 111.978 47.1932 111.978C42.187 111.978 38.8682 108.486 38.8682 101.997H38.8626H38.8598ZM144.188 117.138C144.188 118.02 143.839 118.261 141.215 118.261H140.954C138.189 118.261 137.804 118.141 137.587 117.496C137.442 117.059 137.327 116.613 137.241 116.162C135.779 117.825 134.015 118.713 131.329 118.713C124.815 118.713 120.9 114.168 120.9 106.858C120.9 98.9574 125.257 94.2786 131.717 94.2786C133.537 94.2786 135.213 94.8133 136.507 95.7865V85.5198C136.507 84.8327 136.591 84.5466 140.219 84.5466H140.481C143.839 84.5466 144.185 84.8327 144.185 85.5198V117.138H144.188ZM136.51 101.551C136.066 101.09 135.527 100.722 134.925 100.471C134.324 100.219 133.674 100.09 133.017 100.091C130.125 100.091 128.753 102.479 128.753 106.863C128.753 109.376 129.313 110.973 130.125 111.809C130.857 112.673 131.982 112.951 133.064 112.951C134.4 112.951 135.433 112.638 135.911 112.058C136.335 111.614 136.507 110.927 136.507 109.344V101.548L136.513 101.551H136.51ZM183.327 117.298C183.327 117.98 182.981 118.261 179.614 118.261H179.355C175.733 118.261 175.657 117.98 175.657 117.298V85.5198C175.657 84.8327 175.733 84.5466 179.353 84.5466H179.611C182.975 84.5466 183.324 84.8327 183.324 85.5198V117.298H183.327ZM156.315 108.85C156.743 111.729 158.639 113.114 161.617 113.114C163.909 113.114 166.055 112.633 168.564 111.614C169.087 111.414 169.557 111.614 170.111 113.226L170.505 114.13C171.059 115.793 171.011 116.162 170.415 116.48C167.433 118.06 164.331 118.707 160.88 118.707C153.253 118.707 148.469 114.296 148.469 106.743C148.469 99.3986 152.864 94.2786 160.41 94.2786C167.875 94.2786 171.705 99.3157 171.705 106.294C171.705 108.609 171.494 108.85 170.631 108.85H156.315ZM164.027 104.35C163.909 101.922 162.874 99.8049 160.329 99.8049C158.121 99.8049 156.524 101.382 156.223 104.35H164.027ZM195.274 108.85C195.696 111.729 197.597 113.114 200.579 113.114C202.851 113.114 205.017 112.633 207.517 111.614C208.029 111.414 208.513 111.614 209.069 113.226L209.46 114.13C210.014 115.793 209.969 116.162 209.376 116.48C206.395 118.06 203.287 118.707 199.833 118.707C192.203 118.707 187.424 114.296 187.424 106.743C187.424 99.3986 191.812 94.2786 199.361 94.2786C206.831 94.2786 210.667 99.3157 210.667 106.294C210.667 108.609 210.45 108.85 209.587 108.85H195.271H195.274ZM202.995 104.35C202.854 101.922 201.827 99.8049 199.282 99.8049C197.083 99.8049 195.48 101.382 195.181 104.35H202.995ZM108.627 101.711C108.238 101.224 107.736 100.828 107.161 100.554C106.585 100.281 105.951 100.137 105.308 100.134C102.417 100.134 101.041 102.527 101.041 106.783C101.041 110.392 102.065 113.074 105.215 113.074C106.385 113.074 107.24 112.791 107.85 112.216C108.407 111.654 108.627 110.879 108.627 109.184V101.711ZM116.389 117.138C116.389 118.02 116.049 118.261 113.419 118.261H113.065C110.309 118.261 109.92 118.141 109.707 117.496C109.559 117.06 109.443 116.614 109.361 116.162C107.898 117.825 106.126 118.713 103.449 118.713C97.1967 118.713 93.1832 114.242 93.1832 106.949C93.1832 98.8344 98.1445 94.2786 104.011 94.2786C106.385 94.2786 108.449 95.2197 109.574 96.5565L109.707 95.5405C109.743 95.0593 109.881 94.7384 112.716 94.7384H113.023C115.959 94.7384 116.384 94.9336 116.384 95.6742V117.138H116.389ZM80.392 87.8806C83.2776 87.8806 83.452 87.9154 83.452 88.8084V94.7331H88.4161C89.1023 94.7331 89.3161 94.8534 89.3161 97.0832V97.4121C89.3161 99.6365 89.1023 99.7648 88.4161 99.7648H83.452V110.398C83.452 112.178 83.7923 113.114 85.5164 113.114C86.4164 113.114 87.2039 112.951 87.9801 112.713C88.7957 112.416 89.1051 112.791 89.662 114.651L89.7914 115.098C90.3932 117.138 90.2161 117.298 89.4482 117.657C87.8957 118.346 85.8201 118.713 83.8823 118.713C77.7595 118.713 76.0354 115.793 76.0354 110.713V99.7648H73.1442C72.4129 99.7648 72.2301 99.6311 72.2301 97.4121V97.0832C72.2301 94.8534 72.4101 94.7384 73.1442 94.7384H76.3786C76.7301 92.8322 77.3264 90.1479 77.7173 88.8084C77.9339 88.0357 78.0632 87.8806 80.392 87.8806ZM64.3495 94.7384C67.7161 94.7384 68.0142 95.0138 68.0142 95.709V117.298C68.0142 118.02 67.7161 118.261 64.3495 118.261H64.1301C60.4261 118.261 60.3417 118.02 60.3417 117.298V95.709C60.3417 95.0138 60.4261 94.7384 64.1301 94.7384H64.3495ZM64.1301 84.1857C66.5601 84.1857 68.3207 85.969 68.3207 87.9956C68.3099 88.5035 68.1929 89.0042 67.9766 89.4687C67.7603 89.9333 67.449 90.3522 67.0607 90.7013C66.2732 91.4098 65.2186 91.7948 64.1301 91.7707C61.7282 91.7707 59.9479 89.9874 59.9479 87.9956C59.9479 85.9637 61.7282 84.1857 64.1301 84.1857Z" fill="white"/>
</svg>
