<svg width="240" height="161" viewBox="0 0 240 161" fill="none" xmlns="http://www.w3.org/2000/svg">
<rect width="240" height="161" rx="12" fill="#CE495C"/>
<path d="M67.5 42.9578C67.8101 37.0749 72.1516 30.5727 78.3538 29.9535C105.953 29.9535 133.553 29.9535 161.152 29.9535C167.975 31.192 172.626 38.623 172.006 45.1252C172.006 59.6776 172.006 73.9204 172.006 88.4729C166.734 88.4729 161.462 88.4729 156.501 88.4729C159.292 78.8745 157.431 68.3472 151.849 59.9873C145.957 51.0081 135.724 45.1252 124.87 43.8867C113.396 42.3385 101.302 46.6733 93.2389 55.3429C87.657 60.6065 84.5559 68.3472 83.6256 75.7782C83.3155 77.9456 83.3155 80.4226 83.6256 82.59C84.2458 89.0921 86.7266 95.5943 91.0681 100.548C97.2703 108.908 107.504 113.862 118.047 114.791C118.047 118.816 118.047 122.532 118.047 126.557C105.333 126.557 92.9288 126.557 80.2144 126.557C73.0819 126.557 67.8101 119.745 67.5 113.243C67.5 89.7114 67.5 66.4894 67.5 42.9578Z" fill="white"/>
<ellipse cx="121.265" cy="79.7646" rx="26.1653" ry="26.1247" fill="#B79C91"/>
<ellipse cx="147.43" cy="110.534" rx="9.30322" ry="9.28879" fill="#B79C91"/>
<ellipse cx="163.711" cy="125.241" rx="5.81451" ry="5.80549" fill="#B79C91"/>
</svg>
