<svg width="240" height="161" viewBox="0 0 240 161" fill="none" xmlns="http://www.w3.org/2000/svg">
<rect width="240" height="161" rx="12" fill="#F884A1"/>
<path fill-rule="evenodd" clip-rule="evenodd" d="M136.243 66.2152L142.008 37.5546C142.702 34.3393 140.794 31.0992 137.599 30.1593C134.032 29.2689 130.44 31.3465 129.523 34.8587L124.3 52.7138L120.183 35.1307C119.861 33.4983 118.87 32.039 117.458 31.0992C116.046 30.1593 114.287 29.8378 112.627 30.184C109.357 30.8766 107.227 34.6855 108.044 38.1481L110.474 58.066C108.363 55.9653 105.898 55.3181 103.042 56.9703L102.67 57.2177C100.067 58.9876 99.5377 62.6044 101.21 65.8987C99.8258 65.9765 98.4724 66.553 97.4433 67.6055L97.1956 67.8776C94.7927 70.3509 95.2634 74.5308 98.2608 77.5236L100.696 79.9467C100.969 91.1471 110.095 98.992 120.854 98.992C120.981 98.992 121.104 98.9745 121.22 98.9419C135.794 98.7962 142.204 90.0641 143.296 76.9793C143.643 72.8241 142.875 69.9797 141.265 68.2731C140.373 67.3333 139.432 66.8881 138.713 66.7891L136.243 66.2152ZM133.635 65.609L139.382 37.0105C139.779 35.1307 138.664 33.2757 136.88 32.7316C134.8 32.2122 132.669 33.4736 132.099 35.5759L125.436 58.38C125.238 59.0973 124.495 59.493 123.776 59.2952C123.205 59.1379 122.838 58.6372 122.81 58.0783L117.557 35.6748C117.359 34.7102 116.789 33.8693 115.971 33.3252C115.154 32.781 114.138 32.6079 113.172 32.8058C111.438 33.1768 110.15 35.5017 110.67 37.5793L110.695 37.7277L113.697 62.4417L115.586 65.2554C116.411 64.1122 117.6 63.3998 119.02 63.0791C120.209 62.8318 121.423 62.8565 122.587 63.0544C122.877 63.0958 123.098 63.1546 123.221 63.1871C123.244 63.1934 123.264 63.1988 123.281 63.2028L133.635 65.609ZM114.399 68.2923L111.441 63.8851C111.341 63.7793 111.258 63.6571 111.198 63.523L109.805 61.4471C108.095 58.949 106.436 58.0833 104.454 59.2211L104.181 59.4189C102.646 60.4825 102.447 63.0053 104.033 65.4291L109.879 74.1105C110.919 75.644 113 76.0397 114.536 75.0009L114.833 74.8278C115.244 74.5596 115.584 74.1908 115.828 73.7663C114.36 72.2652 113.997 70.4089 114.399 68.2923ZM118.532 72.6166C118.379 72.3839 118.151 72.1979 117.871 72.0944C116.753 71.0214 116.709 69.6816 117.236 67.9269C117.633 66.6407 118.401 65.9729 119.614 65.7009C120.407 65.5277 121.274 65.5525 122.116 65.7009C122.211 65.7198 122.295 65.7351 122.366 65.7481C122.482 65.7692 122.566 65.7845 122.612 65.7998L138.218 69.4356L138.515 69.5345C138.763 69.6335 139.035 69.8313 139.308 70.1034C140.348 71.2164 140.943 73.3187 140.646 76.7814C139.63 88.9007 133.982 96.4196 120.556 96.296C120.48 96.296 120.406 96.3021 120.334 96.3139C112.197 96.0969 105.314 90.7919 103.715 82.9509L105.717 84.9436C108.12 87.2438 111.91 87.1943 114.239 84.8199L114.511 84.5478C116.359 82.6224 116.676 79.7863 115.475 77.5428C115.652 77.4473 115.827 77.3421 115.998 77.2269L116.295 77.029C116.968 76.5713 117.534 75.9813 117.968 75.3019C118.872 75.7725 119.959 76.185 121.249 76.5341L124.99 77.3997C122.215 78.9579 120.481 81.8517 120.283 86.279C120.234 87.021 120.803 87.6393 121.547 87.6888C122.29 87.7135 122.909 87.1694 122.959 86.4274C123.157 82.4206 124.717 80.2688 127.219 79.3289C128.557 78.8343 130.018 78.7353 131.307 78.859L131.629 78.9085C133.338 79.23 133.883 76.6825 132.174 76.2867L121.893 73.9865C120.409 73.5817 119.313 73.1322 118.532 72.6166ZM99.3755 69.4852C100.404 68.4111 102.078 68.2815 103.284 69.1186L107.649 75.6192C108.847 77.3653 110.786 78.291 112.746 78.2564C113.815 79.5517 113.758 81.4679 112.554 82.6928L112.306 82.9649C111.018 84.2758 108.913 84.3005 107.6 83.0144L100.168 75.6686C98.1122 73.6157 97.8397 71.0929 99.1278 69.7573L99.3755 69.4852Z" fill="white"/>
<path d="M89.4667 124.096C89.4667 128.227 86.2464 131.046 82.0352 131.046C79.0873 131.046 76.5606 129.711 75 127.584L77.8983 124.69C78.7653 125.803 80.2021 127.015 82.0847 127.015C83.8435 127.015 85.0573 125.976 85.0573 124.294C85.0573 122.513 83.6206 122.068 81.3663 121.425C77.2295 120.213 75.545 118.061 75.545 115.267C75.545 111.755 78.2203 108.737 82.4315 108.737C85.0821 108.737 87.5345 109.974 88.6244 112.373L85.1316 114.574C84.4628 113.486 83.5462 112.769 82.3077 112.769C80.8461 112.769 79.9296 113.758 79.9296 115.019C79.9296 116.528 81.2672 116.998 83.3976 117.616C86.7418 118.606 89.4667 120.263 89.4667 124.096Z" fill="white"/>
<path fill-rule="evenodd" clip-rule="evenodd" d="M90.977 123.156C90.977 127.485 94.5936 131.046 99.0525 131.046C103.511 131.046 107.128 127.485 107.128 123.156C107.128 118.828 103.511 115.266 99.0525 115.266C94.5936 115.266 90.977 118.828 90.977 123.156ZM99.0515 127.089C101.207 127.089 102.916 125.382 102.916 123.156C102.916 120.93 101.207 119.224 99.0515 119.224C96.8715 119.224 95.1871 120.93 95.1871 123.156C95.1871 125.407 96.8963 127.089 99.0515 127.089Z" fill="white"/>
<path d="M117.557 109.009V112.967C115.203 112.868 113.494 114.055 113.494 116.677V118.284C114.436 117.295 115.773 116.8 117.433 116.8V120.807C115.104 120.857 113.494 122.341 113.494 124.418V130.651H109.283V116.429C109.283 112.423 111.81 109.009 116.938 109.009H117.557Z" fill="white"/>
<path fill-rule="evenodd" clip-rule="evenodd" d="M126.747 131.046C122.288 131.046 118.672 127.485 118.672 123.156C118.672 118.828 122.288 115.266 126.747 115.266C131.206 115.266 134.823 118.828 134.823 123.156C134.823 127.485 131.206 131.046 126.747 131.046ZM130.611 123.156C130.611 125.382 128.927 127.089 126.747 127.089C124.592 127.089 122.882 125.407 122.882 123.156C122.882 120.93 124.592 119.224 126.747 119.224C128.902 119.224 130.611 120.93 130.611 123.156Z" fill="white"/>
<path d="M141.189 117.394V115.687H137.102V130.651H141.313V123.824C141.313 121.351 142.774 119.966 145.301 119.966V115.464C143.394 115.39 142.031 116.033 141.189 117.394Z" fill="white"/>
<path d="M151.94 119.348V123.008C151.94 125.63 153.649 126.792 156.003 126.718V130.675H155.383C150.231 130.675 147.729 127.262 147.729 123.255V110.889H151.94V113.238C151.94 115.267 153.6 116.8 155.879 116.849V120.832C154.194 120.832 152.882 120.337 151.94 119.348Z" fill="white"/>
<path d="M161.031 130.898C162.567 130.898 163.855 129.637 163.855 128.078C163.855 126.545 162.592 125.259 161.031 125.259C159.471 125.259 158.208 126.52 158.208 128.078C158.208 129.637 159.471 130.898 161.031 130.898Z" fill="white"/>
</svg>
