<svg width="241" height="161" viewBox="0 0 241 161" fill="none" xmlns="http://www.w3.org/2000/svg">
<rect x="0.333008" width="240" height="161" rx="12" fill="#FFB3C8"/>
<path d="M210.333 94.9697V95.0993C210.32 97.9457 207.993 100.244 205.142 100.231C202.291 100.218 199.985 97.8939 200.003 95.0475C200.016 92.1967 202.343 89.9032 205.194 89.9162H205.237C208.04 89.9075 210.324 92.1708 210.333 94.9697Z" fill="#1D1D1B"/>
<path d="M181.213 93.0096C177.276 93.2817 173.863 90.3187 173.586 86.3882C173.314 82.4576 176.281 79.0497 180.222 78.7733C180.374 78.7647 180.529 78.756 180.685 78.756C184.622 78.4839 188.039 81.4469 188.312 85.3775C188.584 89.308 185.617 92.7202 181.68 92.9923C181.524 93.0053 181.369 93.0096 181.213 93.0096ZM188.377 72.1389V73.9141C181.754 69.4264 172.743 71.1498 168.248 77.7626C163.753 84.3754 165.479 93.3724 172.102 97.8602C177.017 101.19 183.467 101.19 188.377 97.8602V99.6354H196.548V72.1346L188.377 72.1389Z" fill="#1D1D1B"/>
<path d="M162.994 82.1109V99.5305H154.822V85.035C154.822 81.0527 152.754 78.893 149.198 78.893C148.913 78.8455 148.619 78.8455 148.333 78.893C145.158 79.1824 142.805 81.964 143.047 85.1344V99.578H134.828V72.0772H142.952V75.1958C144.95 72.6085 148.095 71.1702 151.361 71.3559C151.604 71.3559 151.889 71.3084 152.131 71.3084C158.119 71.2998 162.981 76.133 162.994 82.1109Z" fill="#1D1D1B"/>
<path d="M131.026 72.1705V80.1353H130.931C127.713 80.1353 123.049 82.485 123.049 86.8043V99.6671H114.683V72.1705H122.997V75.7685C125 73.4318 127.946 72.1144 131.026 72.1705Z" fill="#1D1D1B"/>
<path d="M95.065 92.9525C91.1197 92.9698 87.9055 89.7908 87.8882 85.8473C87.8708 81.9038 91.0591 78.6989 95.0044 78.6816C98.9497 78.6644 102.164 81.8477 102.181 85.7868V85.7998C102.051 89.6785 98.9454 92.8013 95.065 92.9525ZM102.229 72.0775V73.8527C99.8538 72.2114 97.0419 71.3259 94.1522 71.3086C86.1361 71.4469 79.7467 78.0467 79.8894 86.0503C80.0235 93.8596 86.3308 100.161 94.1522 100.295C97.0376 100.295 99.8495 99.4271 102.229 97.7987V99.574H110.401V72.0731L102.229 72.0775Z" fill="#1D1D1B"/>
<path d="M76.4866 59.9072H67.9296V99.6445H76.4866V59.9072Z" fill="#1D1D1B"/>
<path d="M39.3699 59.9072H30.333V99.6445H39.3699V59.9072Z" fill="#1D1D1B"/>
<path d="M65.2248 99.6443H54.0118L40.4585 80.9764L43.9669 78.3373C49.7507 73.9749 53.138 67.1461 53.099 59.907H61.9413C61.9889 68.3512 58.6709 76.4671 52.714 82.4622L65.2248 99.6443Z" fill="#1D1D1B"/>
</svg>
