<svg width="241" height="161" viewBox="0 0 241 161" fill="none" xmlns="http://www.w3.org/2000/svg">
<rect x="0.666992" width="240" height="161" rx="12" fill="#FF9900"/>
<path d="M158.096 113.173C116.306 133.031 90.3705 116.416 73.7684 106.325C72.7411 105.689 70.995 106.474 72.5099 108.211C78.0409 114.907 96.1672 131.047 119.827 131.047C143.503 131.047 157.589 118.148 159.351 115.898C161.101 113.667 159.865 112.436 158.096 113.173H158.096ZM169.833 106.701C168.711 105.242 163.009 104.97 159.421 105.41C155.827 105.838 150.432 108.031 150.901 109.348C151.142 109.841 151.633 109.62 154.102 109.398C156.578 109.151 163.513 108.277 164.958 110.164C166.41 112.063 162.746 121.11 162.077 122.569C161.43 124.028 162.324 124.405 163.538 123.433C164.736 122.461 166.904 119.946 168.359 116.385C169.804 112.806 170.686 107.812 169.833 106.701H169.833Z" fill="white"/>
<path fill-rule="evenodd" clip-rule="evenodd" d="M129.996 72.6531C129.996 77.8635 130.128 82.2087 127.491 86.8358C125.362 90.5982 121.989 92.9118 118.222 92.9118C113.078 92.9118 110.083 88.9991 110.083 83.2246C110.083 71.8252 120.312 69.7563 129.996 69.7563V72.6531ZM143.504 105.252C142.619 106.041 141.338 106.098 140.339 105.571C135.893 101.885 135.102 100.173 132.653 96.6551C125.305 104.142 120.106 106.38 110.573 106.38C99.3067 106.38 90.5273 99.4389 90.5273 85.5381C90.5273 74.6848 96.4245 67.2921 104.808 63.6808C112.08 60.4826 122.234 59.9184 129.996 59.0346V57.3039C129.996 54.1248 130.241 50.3628 128.376 47.6167C126.737 45.1524 123.61 44.1366 120.859 44.1366C115.754 44.1366 111.194 46.7511 110.083 52.1685C109.856 53.3726 108.971 54.5578 107.766 54.6141L94.7661 53.2224C93.6737 52.9773 92.468 52.0935 92.7694 50.4191C95.7649 34.694 109.988 29.9535 122.724 29.9535C129.242 29.9535 137.758 31.6842 142.901 36.6127C149.42 42.6882 148.798 50.7954 148.798 59.6175V80.4594C148.798 86.7232 151.398 89.4694 153.847 92.8555C154.713 94.0592 154.902 95.508 153.809 96.4105C151.077 98.6864 146.217 102.919 143.542 105.289L143.504 105.252" fill="black"/>
<path d="M158.096 113.173C116.306 133.031 90.3705 116.416 73.7684 106.325C72.7411 105.689 70.995 106.474 72.5099 108.211C78.0409 114.907 96.1672 131.047 119.827 131.047C143.503 131.047 157.589 118.148 159.351 115.898C161.101 113.667 159.865 112.436 158.096 113.173H158.096ZM169.833 106.701C168.711 105.242 163.009 104.97 159.421 105.41C155.827 105.838 150.432 108.031 150.901 109.348C151.142 109.841 151.633 109.62 154.102 109.398C156.578 109.151 163.513 108.277 164.958 110.164C166.41 112.063 162.746 121.11 162.077 122.569C161.43 124.028 162.324 124.405 163.538 123.433C164.736 122.461 166.904 119.946 168.359 116.385C169.804 112.806 170.686 107.812 169.833 106.701H169.833Z" fill="white"/>
<path fill-rule="evenodd" clip-rule="evenodd" d="M129.996 72.6531C129.996 77.8635 130.128 82.2087 127.491 86.8358C125.362 90.5982 121.989 92.9118 118.222 92.9118C113.078 92.9118 110.083 88.9991 110.083 83.2246C110.083 71.8252 120.312 69.7563 129.996 69.7563V72.6531ZM143.504 105.252C142.619 106.041 141.338 106.098 140.339 105.571C135.893 101.885 135.102 100.173 132.653 96.6551C125.305 104.142 120.106 106.38 110.573 106.38C99.3067 106.38 90.5273 99.4389 90.5273 85.5381C90.5273 74.6848 96.4245 67.2921 104.808 63.6808C112.08 60.4826 122.234 59.9184 129.996 59.0346V57.3039C129.996 54.1248 130.241 50.3628 128.376 47.6167C126.737 45.1524 123.61 44.1366 120.859 44.1366C115.754 44.1366 111.194 46.7511 110.083 52.1685C109.856 53.3726 108.971 54.5578 107.766 54.6141L94.7661 53.2224C93.6737 52.9773 92.468 52.0935 92.7694 50.4191C95.7649 34.694 109.988 29.9535 122.724 29.9535C129.242 29.9535 137.758 31.6842 142.901 36.6127C149.42 42.6882 148.798 50.7954 148.798 59.6175V80.4594C148.798 86.7232 151.398 89.4694 153.847 92.8555C154.713 94.0592 154.902 95.508 153.809 96.4105C151.077 98.6864 146.217 102.919 143.542 105.289L143.504 105.252" fill="black"/>
</svg>
