<svg width="240" height="161" viewBox="0 0 240 161" fill="none" xmlns="http://www.w3.org/2000/svg">
<rect width="240" height="161" rx="12" fill="#F37421"/>
<path d="M30 52.723V107.137H42.3634V84.3765H62.6681V107.137H74.9692V52.723H62.6681V73.6491H42.3634V52.723H30Z" fill="white"/>
<path d="M181.412 91.3108C181.568 90.4091 181.817 88.5745 181.817 86.4602C181.817 76.6967 176.959 66.7467 164.191 66.7467C150.457 66.7467 144.229 77.8161 144.229 87.8283C144.229 100.173 151.921 107.946 165.343 107.946C170.668 107.946 175.62 107.138 179.668 105.521L178.049 97.2186C174.748 98.2758 171.322 98.8355 167.118 98.8355C161.388 98.8355 156.374 96.4102 155.969 91.3419H181.412V91.3108ZM155.845 82.9155C156.156 79.6195 158.274 74.9244 163.443 74.9244C169.111 74.9244 170.388 79.9305 170.388 82.9155H155.845Z" fill="white"/>
<path d="M185.74 107.137H198.041V87.1129C198.041 86.149 198.135 85.1851 198.29 84.3767C199.1 80.5832 202.183 78.1579 206.699 78.1579C208.069 78.1579 209.128 78.3134 210 78.4688V66.9331C209.097 66.7776 208.536 66.7776 207.415 66.7776C203.616 66.7776 198.758 69.2029 196.733 74.9242H196.422L196.017 67.6482H185.429C185.584 71.0374 185.74 74.8309 185.74 80.6454V107.137Z" fill="white"/>
<path fill-rule="evenodd" clip-rule="evenodd" d="M87.4576 50.5465C90.9455 50.5465 93.7794 53.376 93.7794 56.8585C93.7794 60.341 90.9455 63.1706 87.4576 63.1706C83.9697 63.1706 81.1357 60.341 81.1357 56.8585C81.1357 53.376 83.9697 50.5465 87.4576 50.5465Z" fill="#FFE700"/>
<path fill-rule="evenodd" clip-rule="evenodd" d="M113.43 97.9335H119.596C125.794 97.9335 128.596 93.9846 128.596 89.8491C128.596 85.7136 128.285 76.3855 120.655 76.3855C111.873 76.3855 113.274 87.9835 113.337 94.0467C113.306 95.3527 113.399 96.6586 113.43 97.9335ZM81.1357 67.617H93.7794V89.8802C93.7794 94.0156 96.084 97.9646 101.16 97.9646C101.191 87.9524 101.16 77.6292 100.818 67.617H111.375C111.593 69.5449 111.811 71.4727 111.998 73.4005C116.98 63.4505 132.707 65.627 138.001 74.0534C143.451 82.7286 145.32 107.604 119.596 107.604H113.617C113.679 112.641 113.679 117.709 113.679 122.777H101.036C101.036 117.927 101.067 112.827 101.098 107.604C87.4264 107.541 81.1357 98.8974 81.1357 89.8802V67.617Z" fill="white"/>
</svg>
