<svg width="241" height="161" viewBox="0 0 241 161" fill="none" xmlns="http://www.w3.org/2000/svg">
<rect x="0.333008" width="240" height="161" rx="12" fill="#424242"/>
<path d="M57.1377 61.3416C59.0604 60.6923 61.1245 60.3535 63.2734 60.3535C72.6608 60.3535 80.493 67.0161 82.2744 75.8526L95.5638 73.1424C92.51 58.1232 79.2207 46.8024 63.2734 46.8024C59.6259 46.8024 56.1198 47.3952 52.8398 48.4963L57.1377 61.3416Z" fill="#FFF100"/>
<path d="M41.4452 104.367L50.4368 94.2032C46.4217 90.646 43.9052 85.4797 43.9052 79.6922C43.9052 73.933 46.4217 68.7384 50.4368 65.2095L41.4452 55.0743C34.6309 61.1159 30.333 69.8959 30.333 79.7204C30.333 89.5168 34.6309 98.3247 41.4452 104.367Z" fill="#00A3DF"/>
<path d="M82.2743 83.5879C80.4647 92.4244 72.6608 99.0588 63.2734 99.0588C61.1244 99.0588 59.0604 98.72 57.1094 98.0707L52.8115 110.916C56.0915 112.017 59.6259 112.61 63.2734 112.61C79.2206 112.61 92.51 101.317 95.5637 86.2981L82.2743 83.5879Z" fill="#EE4023"/>
<path d="M139.842 92.6792C137.637 94.8251 134.668 96.1235 131.388 96.067C129.126 96.0388 127.034 95.3612 125.281 94.2319L120.87 101.234C123.895 103.125 127.429 104.254 131.275 104.311C136.845 104.395 141.935 102.193 145.639 98.6078L139.842 92.6792ZM131.869 64.1371C120.785 63.9678 111.624 72.8325 111.454 83.8992C111.398 88.0492 112.585 91.9452 114.706 95.1636L151.124 79.6077C149.089 70.8845 141.285 64.3065 131.869 64.1371H131.869ZM119.796 85.4799C119.739 85.0282 119.711 84.5482 119.711 84.0683C119.824 77.5468 125.196 72.324 131.728 72.4369C135.29 72.4934 138.457 74.1026 140.578 76.6434L119.796 85.4799ZM162.576 55.1028V93.8646L169.306 96.6596L166.11 104.31L159.438 101.544C157.939 100.894 156.921 99.9062 156.158 98.7769C155.422 97.6477 154.857 96.0664 154.857 93.9776V55.1028H162.576ZM186.865 73.0298C188.053 72.6346 189.296 72.4369 190.626 72.4369C196.365 72.4369 201.116 76.5023 202.219 81.8945L210.333 80.2288C208.467 71.0536 200.352 64.1651 190.626 64.1651C188.392 64.1651 186.243 64.5321 184.264 65.1814L186.865 73.0298ZM177.279 99.2569L182.765 93.0742C180.305 90.9003 178.778 87.7384 178.778 84.2095C178.778 80.6805 180.333 77.5186 182.765 75.373L177.279 69.1903C173.123 72.8604 170.493 78.2526 170.493 84.2377C170.493 90.2228 173.123 95.5868 177.279 99.2569ZM202.219 86.6089C201.116 92.0014 196.337 96.0664 190.626 96.0664C189.325 96.0664 188.053 95.8406 186.865 95.4456L184.235 103.294C186.243 103.971 188.392 104.339 190.626 104.339C200.352 104.339 208.467 97.45 210.333 88.2748L202.219 86.6089Z" fill="white"/>
</svg>
