<svg width="241" height="161" viewBox="0 0 241 161" fill="none" xmlns="http://www.w3.org/2000/svg">
<rect x="0.666992" width="240" height="161" rx="12" fill="#0659A5"/>
<path d="M106.271 29.9535C105.322 29.9532 104.412 30.3292 103.74 30.9986C103.069 31.6681 102.691 32.5764 102.69 33.5238V58.543H168.895L138.746 29.9612L106.271 29.9535ZM171.32 66.1118C171.321 65.6429 171.228 65.1786 171.048 64.7454C170.869 64.3123 170.605 63.9188 170.273 63.5877C169.94 63.2565 169.546 62.9941 169.111 62.8156C168.677 62.6371 168.212 62.5459 167.742 62.5473H142.686V128.647L171.308 98.537L171.32 66.1118ZM135.094 131.047C136.041 131.044 136.949 130.666 137.618 129.997C138.287 129.327 138.662 128.42 138.662 127.474V102.458H72.4605L102.605 131.04L135.094 131.047ZM70.042 94.8921C70.0419 95.3611 70.1343 95.8255 70.3139 96.2589C70.4935 96.6922 70.7569 97.086 71.0889 97.4177C71.421 97.7494 71.8152 98.0125 72.2491 98.1921C72.683 98.3717 73.1481 98.4642 73.6178 98.4644H98.676V32.3595L70.0459 62.462L70.042 94.8921Z" fill="white"/>
</svg>
