<svg width="240" height="161" viewBox="0 0 240 161" fill="none" xmlns="http://www.w3.org/2000/svg">
<rect width="240" height="161" rx="12" fill="#32357F"/>
<path d="M111.399 57.2486C116.419 52.194 121.942 48.1502 128.468 45.3702C134.492 42.5901 141.018 41.3265 147.795 41.3265C154.573 41.3265 161.099 42.5901 167.374 45.3702C173.649 48.1502 179.172 52.194 184.192 57.5013L184.443 58.0068H198.75L198.248 56.9959C192.475 48.9084 184.945 42.0847 175.908 37.5355C166.872 32.4808 157.585 29.9535 147.795 29.9535C138.006 29.9535 128.468 32.2281 119.432 37.03C110.395 41.8319 102.865 48.403 97.0919 56.7431L96.5898 57.7541H111.148L111.399 57.2486Z" fill="#FF3E48"/>
<path d="M128.468 67.8635V77.9728H141.018V114.366C141.018 119.168 141.771 123.212 144.532 125.992C147.042 129.025 150.305 130.541 154.573 130.541C158.84 130.541 162.605 129.783 165.868 127.761H166.119V127.508L168.88 115.63L168.127 116.135C164.613 118.157 162.103 119.168 159.091 119.168C155.075 119.168 153.569 116.894 153.569 112.092V77.9728H166.119V67.8635H153.569V47.8976L141.018 54.7214V67.8635H128.468Z" fill="white"/>
<path d="M191.219 67.8635H178.669V131.047H191.219V67.8635Z" fill="white"/>
<path d="M97.5938 77.4672V76.9617C91.8206 69.8852 84.5413 66.3469 75.756 66.3469C66.4688 66.3469 58.9385 69.127 52.9143 74.6871C46.3881 80.7527 43.125 88.5874 43.125 98.6967C43.125 108.806 46.3881 116.641 52.9143 122.706C58.9385 128.266 66.4688 131.046 75.756 131.046C84.5413 131.046 91.8206 127.508 97.5938 120.432L97.8448 120.179L90.5655 111.333L90.3145 111.586C85.5454 116.135 80.5252 118.663 75.254 118.663C69.7319 118.663 64.9627 116.641 61.4486 112.85C57.6835 109.059 55.9264 104.257 55.9264 98.444C55.9264 92.6311 57.6835 87.8292 61.4486 84.0382C65.2137 80.2472 69.7319 78.4781 75.254 78.4781C80.5252 78.4781 85.5454 81.0054 90.3145 85.5546L90.5655 85.8073L97.8448 76.9617L97.5938 77.4672Z" fill="white"/>
<path d="M118.427 67.8635H105.877V131.047H118.427V67.8635Z" fill="white"/>
</svg>
