<svg width="240" height="161" viewBox="0 0 240 161" fill="none" xmlns="http://www.w3.org/2000/svg">
<rect width="240" height="161" rx="12" fill="#862165"/>
<path fill-rule="evenodd" clip-rule="evenodd" d="M151.911 57.8851C151.911 53.8333 155.22 50.5465 159.295 50.5465C163.376 50.5465 166.683 53.8333 166.683 57.8851C166.683 61.9393 163.376 65.2189 159.295 65.2189C155.22 65.2189 151.911 61.9393 151.911 57.8851ZM173.14 56.5479L188.116 53.8856V111H173.14V56.5479ZM195.015 56.5479V111H210V53.8856L195.015 56.5479ZM151.808 69.2255V111H166.791V69.2255H151.808ZM122.48 87.4994C122.48 75.2294 129.513 69.0564 143.356 68.613C143.356 68.613 145.856 68.5177 147.332 68.8299V81.0403C138.557 81.3406 137.587 84.4891 137.587 91.8324V111H122.48V87.4994ZM102.632 69.3728L102.631 69.3744C102.095 70.7731 99.6533 77.139 94.1742 83.7214V53.8856L78.7112 56.9244V111H94.1742V94.2824C98.6518 100.956 100.864 111 100.864 111H119.382C117.551 103.435 109.539 89.4893 109.539 89.4893C116.733 80.4275 119.888 70.777 120.392 69.1777H102.707C102.689 69.2245 102.663 69.2898 102.632 69.3728ZM46.502 70.8079C46.502 74.7287 50.8885 75.0123 52.7817 75.1339C66.6682 76.0586 74.9444 82.8109 74.9444 93.2003C74.9444 102.367 67.544 111.612 51.0348 111.612C43.3801 111.612 36.8484 110.864 31.0558 109.35V96.008C34.924 97.5882 41.2973 99.2471 47.8626 99.2471C53.8544 99.2471 57.4178 97.2783 57.4178 93.932C57.4178 89.8948 53.0963 89.6318 51.4391 89.5309L51.4212 89.5298C32.0828 88.2213 30 76.8571 30 72.033C30 63.6553 35.9846 53.8856 52.8753 53.8856C62.6729 53.8856 67.9544 55.4038 72.504 56.984L72.732 57.0531V70.0119L72.5616 69.9642C70.7355 69.1967 68.5903 68.4436 68.5903 68.4436C64.7365 67.2971 59.347 66.0768 55.1813 66.0768C52.8129 66.0768 46.502 66.0768 46.502 70.8079Z" fill="white"/>
</svg>
