<svg width="241" height="161" viewBox="0 0 241 161" fill="none" xmlns="http://www.w3.org/2000/svg">
<g clip-path="url(#clip0_577_9054)">
<rect x="0.333008" width="240" height="161" rx="12" fill="#FF9100"/>
<path d="M-0.666992 108L106.833 0H0.333008L-0.666992 108Z" fill="#07A8EF"/>
<path d="M155.259 87.0972C152.506 100.842 140.392 112.663 125.524 114.312C119.467 114.862 113.96 114.038 108.729 111.838C107.903 112.663 97.7156 122.834 96.6143 123.934C105.425 129.157 116.163 131.906 127.176 130.807C145.898 128.882 161.317 116.512 168.475 100.292L155.259 87.0972Z" fill="white"/>
<path d="M155.259 87.0972C152.506 100.842 140.392 112.663 125.524 114.312C119.467 114.862 113.96 114.038 108.729 111.838C107.903 112.663 97.7156 122.834 96.6143 123.934C105.425 129.157 116.163 131.906 127.176 130.807C145.898 128.882 161.317 116.512 168.475 100.292L155.259 87.0972Z" fill="white"/>
<path d="M86.4277 116.237C88.355 118.161 90.2823 119.811 92.485 121.46L162.969 51.0851C161.317 48.8859 159.665 46.9615 157.738 45.0372L86.4277 116.237Z" fill="white"/>
<path d="M154.709 42.2881C152.231 40.3638 150.304 38.7144 148.101 37.3399C139.016 31.8418 128.278 29.0928 116.989 30.1924C89.1809 32.9415 69.0819 57.6827 71.8352 85.4478C72.6612 93.9697 75.4145 101.117 79.5444 107.715C80.6457 109.639 83.6744 113.213 83.6744 113.213L154.709 42.2881ZM120.018 46.4117C125.8 45.8619 131.582 46.6866 136.538 48.8858L91.9342 93.4199C90.5576 90.396 89.7316 87.0972 89.4563 83.7984C87.8043 65.105 101.295 48.336 120.018 46.4117Z" fill="white"/>
</g>
<defs>
<clipPath id="clip0_577_9054">
<rect x="0.333008" width="240" height="161" rx="12" fill="white"/>
</clipPath>
</defs>
</svg>
