<svg width="22" height="21" viewBox="0 0 22 21" fill="none" xmlns="http://www.w3.org/2000/svg">
<path d="M10.9996 1.90639C13.5443 -0.378355 17.4768 -0.302522 19.9284 2.15339C22.3789 4.61039 22.4634 8.52339 20.1841 11.0757L10.9974 20.2754L1.81292 11.0757C-0.466416 8.52339 -0.380832 4.60389 2.06858 2.15339C4.52233 -0.299272 8.44725 -0.381605 10.9996 1.90639ZM18.3944 3.68414C16.7694 2.05698 14.1478 1.9909 12.4469 3.51839L11.0007 4.81623L9.55334 3.51948C7.84708 1.98981 5.23083 2.05698 3.6015 3.68631C1.98733 5.30048 1.90608 7.88423 3.3935 9.59156L10.9985 17.2085L18.6035 9.59264C20.092 7.88423 20.0108 5.30373 18.3944 3.68414Z" fill="#F4683F"/>
</svg>
