<svg width="48" height="48" viewBox="0 0 48 48" fill="none" xmlns="http://www.w3.org/2000/svg">
<rect x="0.75" y="0.75" width="46.5" height="46.5" rx="23.25" fill="white" fill-opacity="0.6" stroke="white" stroke-width="1.5"/>
<path fill-rule="evenodd" clip-rule="evenodd" d="M20.7985 15.23C19.7464 14.6698 18.5326 14.4914 17.3638 14.7251C16.1949 14.9589 15.1432 15.5904 14.3875 16.5123C13.6317 17.4341 13.2188 18.5893 13.2188 19.7813C13.2188 23.3341 15.8643 26.7252 18.7678 29.3383C20.1911 30.6194 21.6188 31.662 22.6926 32.385C23.2285 32.7459 23.6741 33.0256 23.9838 33.2141C23.9893 33.2174 23.9947 33.2207 24 33.2239C24.0053 33.2207 24.0107 33.2174 24.0162 33.2141C24.3259 33.0256 24.7715 32.7459 25.3074 32.385C26.3812 31.662 27.8089 30.6194 29.2322 29.3383C32.1357 26.7252 34.7812 23.3341 34.7812 19.7813C34.7812 18.5893 34.3683 17.4341 33.6125 16.5123C32.8568 15.5904 31.8051 14.9589 30.6362 14.7251C29.4674 14.4914 28.2536 14.6698 27.2015 15.23C26.1494 15.7903 25.3238 16.6978 24.8654 17.7981L24 17.4375L23.1346 17.7981C22.6762 16.6978 21.8506 15.7903 20.7985 15.23ZM24 15.5625C23.3858 14.7436 22.5957 14.0628 21.6798 13.5751C20.2451 12.8111 18.5899 12.5678 16.9961 12.8866C15.4022 13.2053 13.968 14.0665 12.9374 15.3235C11.9069 16.5806 11.3438 18.1558 11.3438 19.7813C11.3438 24.1971 14.5575 28.0717 17.5135 30.732C19.0198 32.0877 20.5218 33.1838 21.6453 33.9403C22.208 34.3191 22.678 34.6143 23.0091 34.8158C23.1747 34.9166 23.3057 34.994 23.3964 35.0469C23.4418 35.0733 23.477 35.0936 23.5015 35.1076L23.5301 35.1238L23.5381 35.1284L23.5406 35.1297L23.5414 35.1302C23.5417 35.1303 23.5419 35.1305 24 34.3125L23.5419 35.1305C23.8265 35.2899 24.1735 35.2899 24.4581 35.1305L24 34.3125C24.4581 35.1305 24.4583 35.1303 24.4586 35.1302L24.4594 35.1297L24.4619 35.1284L24.4699 35.1238L24.4985 35.1076C24.523 35.0936 24.5582 35.0733 24.6036 35.0469C24.6943 34.994 24.8253 34.9166 24.9909 34.8158C25.322 34.6143 25.792 34.3191 26.3547 33.9403C27.4782 33.1838 28.9802 32.0877 30.4865 30.732C33.4425 28.0717 36.6562 24.1971 36.6562 19.7813C36.6562 18.1558 36.0931 16.5806 35.0626 15.3235C34.032 14.0665 32.5978 13.2053 31.0039 12.8866C29.4101 12.5678 27.7549 12.8111 26.3202 13.5751C25.4043 14.0628 24.6142 14.7436 24 15.5625Z" fill="#FF703E"/>
</svg>
